<svg width="207" height="56" viewBox="0 0 207 56" fill="none" xmlns="http://www.w3.org/2000/svg">
<path d="M0.106 56L8.854 0.757997H20.599L29.995 22.79C30.913 24.95 31.804 27.056 32.668 29.108C33.532 31.16 34.207 32.861 34.693 34.211H34.936C35.044 32.969 35.206 31.619 35.422 30.161C35.638 28.649 35.827 27.353 35.989 26.273L40.039 0.757997H52.027L43.279 56H31.615L23.596 37.289C22.084 33.779 20.761 30.647 19.627 27.893C18.547 25.139 17.791 23.114 17.359 21.818H17.116C17.008 23.006 16.846 24.572 16.63 26.516C16.414 28.406 16.171 30.215 15.901 31.943L12.094 56H0.106ZM93.2763 13.151H73.9173L72.5402 21.737H91.2513L89.4693 33.32H70.7583L69.1383 43.607H89.3073L87.3633 56H53.2623L62.0103 0.757997H95.3013L93.2763 13.151ZM119.13 10.64C119.67 11.828 120.129 13.016 120.507 14.204C120.939 15.338 121.371 16.445 121.803 17.525C122.667 16.229 123.477 15.014 124.233 13.88C125.043 12.746 125.88 11.612 126.744 10.478L134.034 0.757997H149.424L127.878 27.245C130.146 32.105 132.414 36.911 134.682 41.663C136.95 46.361 139.218 51.14 141.486 56H126.744L122.37 45.389C121.83 44.147 121.29 42.851 120.75 41.501C120.21 40.097 119.751 38.774 119.373 37.532C118.401 38.936 117.429 40.313 116.457 41.663C115.539 43.013 114.621 44.309 113.703 45.551L106.17 56H90.8608L113.298 27.569L100.257 0.757997H114.837L119.13 10.64Z" fill="#0031D0"/>
<path d="M148.23 34.176H153.734L151.046 51.104H159.014L158.246 56H144.774L148.23 34.176ZM163.793 34.176H169.297L165.841 56H160.337L163.793 34.176ZM180.078 56H175.182L171.118 34.176H176.846L178.286 44.032C178.393 44.6507 178.489 45.376 178.574 46.208C178.66 47.04 178.724 47.8293 178.766 48.576H178.894C179.193 47.7653 179.513 46.9653 179.854 46.176C180.217 45.3867 180.548 44.6613 180.846 44L185.422 34.176H191.31L180.078 56ZM205.364 39.072H197.716L197.172 42.464H204.564L203.86 47.04H196.468L195.828 51.104H203.796L203.028 56H189.556L193.012 34.176H206.164L205.364 39.072Z" fill="#FF0000"/>
</svg>
